<svg version="1.0" xmlns="http://www.w3.org/2000/svg" width="48" height="48"
    viewBox="0 0 150.000000 150.000000" preserveAspectRatio="xMidYMid meet">
    <g transform="translate(0.000000,150.000000) scale(0.100000,-0.100000)" fill="#000000" stroke="none">
    <path d="M610 1486 c-160 -35 -268 -94 -386 -211 -77 -76 -98 -105 -137 -185
    -65 -132 -81 -201 -81 -340 0 -139 16 -208 81 -340 39 -80 61 -109 137 -186
    77 -76 106 -98 186 -137 132 -65 201 -81 340 -81 139 0 208 16 340 81 80 39
    109 61 186 137 76 77 98 106 137 186 65 132 81 201 81 340 0 139 -16 208 -81
    340 -39 80 -61 109 -137 186 -77 76 -106 98 -186 137 -52 26 -122 54 -155 63
    -84 22 -245 27 -325 10z m330 -125 c190 -59 362 -233 423 -426 31 -99 31 -271
    0 -370 -62 -195 -233 -366 -428 -428 -99 -31 -271 -31 -370 0 -193 61 -368
    236 -428 428 -31 99 -31 271 0 370 69 219 276 405 496 445 78 14 232 4 307
    -19z" />
    <path d="M540 745 l0 -315 65 0 65 0 0 315 0 315 -65 0 -65 0 0 -315z" />
    <path d="M810 745 l0 -315 65 0 65 0 0 315 0 315 -65 0 -65 0 0 -315z" />
    </g>
</svg>